<svg xmlns="http://www.w3.org/2000/svg" width="1200" height="700" viewBox="0 0 1200 700" role="img">
<title>Multistep MCP trajectory length</title><desc>Question count by number of PDS tool calls; dots show exact-match rate within each group.</desc>
<style>text{font-family:Arial,sans-serif;fill:#172033}.title{font-size:28px;font-weight:700}.sub{font-size:15px;fill:#526070}.label{font-size:16px}.value{font-size:14px;font-weight:700}.grid{stroke:#dfe4ea;stroke-width:1}.axis{stroke:#8792a2;stroke-width:1.5}</style>
<rect width="100%" height="100%" fill="#fff"/>
<text class="title" x="70" y="55">Multistep MCP trajectory length</text>
<text class="sub" x="70" y="82">Question count by number of PDS tool calls; dots show exact-match rate within each group.</text>
<line class="grid" x1="100" y1="570.0" x2="1120" y2="570.0"/>
<text class="label" x="45" y="575.0">0%</text>
<text class="label" x="1135" y="575.0">0</text>
<line class="grid" x1="100" y1="488.0" x2="1120" y2="488.0"/>
<text class="label" x="45" y="493.0">20%</text>
<text class="label" x="1135" y="493.0">13</text>
<line class="grid" x1="100" y1="406.0" x2="1120" y2="406.0"/>
<text class="label" x="45" y="411.0">40%</text>
<text class="label" x="1135" y="411.0">26</text>
<line class="grid" x1="100" y1="324.0" x2="1120" y2="324.0"/>
<text class="label" x="45" y="329.0">60%</text>
<text class="label" x="1135" y="329.0">38</text>
<line class="grid" x1="100" y1="242.0" x2="1120" y2="242.0"/>
<text class="label" x="45" y="247.0">80%</text>
<text class="label" x="1135" y="247.0">51</text>
<line class="grid" x1="100" y1="160.0" x2="1120" y2="160.0"/>
<text class="label" x="45" y="165.0">100%</text>
<text class="label" x="1135" y="165.0">64</text>
<rect x="105.0" y="550.8" width="40" height="19.2" rx="3" fill="#8fbaf5"/>
<text class="value" text-anchor="middle" x="125.0" y="543.8">3</text>
<text class="label" text-anchor="middle" x="125.0" y="600">1</text>
<circle cx="125.0" cy="160.0" r="6" fill="#d9485f"/>
<rect x="185.0" y="429.1" width="40" height="140.9" rx="3" fill="#8fbaf5"/>
<text class="value" text-anchor="middle" x="205.0" y="422.1">22</text>
<text class="label" text-anchor="middle" x="205.0" y="600">2</text>
<circle cx="205.0" cy="160.0" r="6" fill="#d9485f"/>
<rect x="265.0" y="345.8" width="40" height="224.2" rx="3" fill="#8fbaf5"/>
<text class="value" text-anchor="middle" x="285.0" y="338.8">35</text>
<text class="label" text-anchor="middle" x="285.0" y="600">3</text>
<circle cx="285.0" cy="171.7" r="6" fill="#d9485f"/>
<rect x="345.0" y="160.0" width="40" height="410.0" rx="3" fill="#8fbaf5"/>
<text class="value" text-anchor="middle" x="365.0" y="153.0">64</text>
<text class="label" text-anchor="middle" x="365.0" y="600">4</text>
<circle cx="365.0" cy="166.4" r="6" fill="#d9485f"/>
<rect x="425.0" y="185.6" width="40" height="384.4" rx="3" fill="#8fbaf5"/>
<text class="value" text-anchor="middle" x="445.0" y="178.6">60</text>
<text class="label" text-anchor="middle" x="445.0" y="600">5</text>
<circle cx="445.0" cy="160.0" r="6" fill="#d9485f"/>
<rect x="505.0" y="339.4" width="40" height="230.6" rx="3" fill="#8fbaf5"/>
<text class="value" text-anchor="middle" x="525.0" y="332.4">36</text>
<text class="label" text-anchor="middle" x="525.0" y="600">6</text>
<circle cx="525.0" cy="160.0" r="6" fill="#d9485f"/>
<rect x="585.0" y="339.4" width="40" height="230.6" rx="3" fill="#8fbaf5"/>
<text class="value" text-anchor="middle" x="605.0" y="332.4">36</text>
<text class="label" text-anchor="middle" x="605.0" y="600">7</text>
<circle cx="605.0" cy="182.8" r="6" fill="#d9485f"/>
<rect x="665.0" y="454.7" width="40" height="115.3" rx="3" fill="#8fbaf5"/>
<text class="value" text-anchor="middle" x="685.0" y="447.7">18</text>
<text class="label" text-anchor="middle" x="685.0" y="600">8</text>
<circle cx="685.0" cy="251.1" r="6" fill="#d9485f"/>
<rect x="745.0" y="499.5" width="40" height="70.5" rx="3" fill="#8fbaf5"/>
<text class="value" text-anchor="middle" x="765.0" y="492.5">11</text>
<text class="label" text-anchor="middle" x="765.0" y="600">9</text>
<circle cx="765.0" cy="197.3" r="6" fill="#d9485f"/>
<rect x="825.0" y="518.8" width="40" height="51.2" rx="3" fill="#8fbaf5"/>
<text class="value" text-anchor="middle" x="845.0" y="511.8">8</text>
<text class="label" text-anchor="middle" x="845.0" y="600">10</text>
<circle cx="845.0" cy="211.2" r="6" fill="#d9485f"/>
<rect x="905.0" y="550.8" width="40" height="19.2" rx="3" fill="#8fbaf5"/>
<text class="value" text-anchor="middle" x="925.0" y="543.8">3</text>
<text class="label" text-anchor="middle" x="925.0" y="600">11</text>
<circle cx="925.0" cy="296.7" r="6" fill="#d9485f"/>
<rect x="985.0" y="550.8" width="40" height="19.2" rx="3" fill="#8fbaf5"/>
<text class="value" text-anchor="middle" x="1005.0" y="543.8">3</text>
<text class="label" text-anchor="middle" x="1005.0" y="600">12</text>
<circle cx="1005.0" cy="433.3" r="6" fill="#d9485f"/>
<rect x="1065.0" y="563.6" width="40" height="6.4" rx="3" fill="#8fbaf5"/>
<text class="value" text-anchor="middle" x="1085.0" y="556.6">1</text>
<text class="label" text-anchor="middle" x="1085.0" y="600">15</text>
<circle cx="1085.0" cy="160.0" r="6" fill="#d9485f"/>
<polyline points="125.0,160.0 205.0,160.0 285.0,171.7 365.0,166.4 445.0,160.0 525.0,160.0 605.0,182.8 685.0,251.1 765.0,197.3 845.0,211.2 925.0,296.7 1005.0,433.3 1085.0,160.0" fill="none" stroke="#d9485f" stroke-width="3"/>
<text class="sub" transform="rotate(-90 20 365)" text-anchor="middle" x="20" y="365">Exact-match rate</text>
<text class="sub" transform="rotate(90 1180 365)" text-anchor="middle" x="1180" y="365">Question count</text>
<text class="label" text-anchor="middle" x="610" y="640">Number of tool calls</text>
<rect x="430" y="665" width="16" height="16" fill="#8fbaf5"/><text class="label" x="453" y="679">Questions</text>
<circle cx="575" cy="673" r="6" fill="#d9485f"/><text class="label" x="590" y="679">Exact-match rate</text>
</svg>
